<?xml version="1.0" standalone="no"?><!DOCTYPE svg PUBLIC "-//W3C//DTD SVG 1.1//EN" "http://www.w3.org/Graphics/SVG/1.1/DTD/svg11.dtd"><svg class="icon" width="200px" height="200.00px" viewBox="0 0 1024 1024" version="1.1" xmlns="http://www.w3.org/2000/svg"><path d="M800.606316 77.069474v61.116631a124.173474 124.173474 0 0 0-91.728842 119.215158c0 55.511579 37.510737 104.232421 91.728842 119.215158v580.284632c0 18.701474 15.36 33.845895 34.330947 33.845894a34.115368 34.115368 0 0 0 34.384842-33.845894V376.885895a124.173474 124.173474 0 0 0 91.728842-119.269053c0-55.511579-37.510737-104.178526-91.728842-119.215158V77.015579a34.115368 34.115368 0 0 0-34.330947-33.845895 34.115368 34.115368 0 0 0-34.384842 33.845895z m91.621052 180.439579c0 31.151158-25.653895 56.427789-57.290105 56.427789a56.858947 56.858947 0 0 1-57.23621-56.427789c0-31.151158 25.653895-56.373895 57.290105-56.373895 31.582316 0 57.236211 25.222737 57.23621 56.373895zM548.648421 956.901053a34.115368 34.115368 0 0 1-34.384842 33.845894 34.115368 34.115368 0 0 1-34.330947-33.845894v-317.871158A124.604632 124.604632 0 0 1 377.263158 517.066105c0-59.661474 43.115789-110.861474 102.669474-121.909894V77.015579c0-18.647579 15.36-33.845895 34.384842-33.845895 18.970947 0 34.330947 15.198316 34.330947 33.845895v324.446316a123.957895 123.957895 0 0 1 80.357053 115.496421 123.957895 123.957895 0 0 1-80.357053 115.496421v324.446316z m-320.673684 0a34.115368 34.115368 0 0 1-34.384842 33.845894 34.115368 34.115368 0 0 1-34.330948-33.845894v-61.386106a124.173474 124.173474 0 0 1-91.728842-119.215158c0-55.511579 37.510737-104.232421 91.728842-119.215157V77.015579c0-18.647579 15.36-33.845895 34.330948-33.845895 19.024842 0 34.384842 15.198316 34.384842 33.845895v580.284632a124.173474 124.173474 0 0 1 91.728842 119.215157c0 55.511579-37.510737 104.232421-91.728842 119.215158v61.170527z m217.573052-439.942737c0 31.151158 25.653895 56.427789 57.290106 56.427789s57.236211-25.276632 57.23621-56.427789-25.6-56.373895-57.23621-56.373895c-31.636211 0-57.290105 25.222737-57.290106 56.373895zM136.353684 776.407579c0 31.151158 25.653895 56.427789 57.236211 56.427789 31.636211 0 57.290105-25.276632 57.290105-56.427789s-25.653895-56.373895-57.290105-56.373895c-31.582316 0-57.236211 25.222737-57.236211 56.373895z" fill="#666666" /></svg>