<?xml version="1.0" standalone="no"?><!DOCTYPE svg PUBLIC "-//W3C//DTD SVG 1.1//EN" "http://www.w3.org/Graphics/SVG/1.1/DTD/svg11.dtd"><svg class="icon" width="200px" height="200.00px" viewBox="0 0 1024 1024" version="1.1" xmlns="http://www.w3.org/2000/svg"><path d="M780.288 1021.952c-133.12 0-241.664-108.544-241.664-241.664V538.624h241.664c65.024 0 125.952 25.088 171.52 71.168 45.568 45.568 70.144 105.984 70.144 170.496 0 133.12-108.544 241.664-241.664 241.664z m-190.464-432.128v190.464c0 104.96 85.504 190.464 190.464 190.464s190.464-85.504 190.464-190.464c0-50.688-19.456-98.304-55.296-134.144-35.84-36.352-83.968-56.32-135.168-56.32h-190.464z m-346.624 432.128c-133.12 0-241.664-108.544-241.664-241.664s108.544-241.664 242.176-241.664h241.152v241.664c0 133.12-108.544 241.664-241.664 241.664z m0.512-432.128c-105.472 0-190.976 85.504-190.976 190.464s85.504 190.464 190.464 190.464 190.464-85.504 190.464-190.464V589.824H243.712z m537.088-105.472h-241.664V242.688c0-133.12 108.544-241.664 241.664-241.664 133.12 0 241.664 108.544 241.664 241.664s-108.544 241.664-241.664 241.664z m-190.464-51.2h190.464c104.96 0 190.464-85.504 190.464-190.464S885.76 52.224 780.8 52.224c-104.96 0-190.464 85.504-190.464 190.464v190.464z m-104.96 51.2H243.712c-133.12 0-241.664-108.544-241.664-241.664s108.544-241.664 241.664-241.664 241.664 108.544 241.664 241.664v241.664zM243.712 52.224c-104.96 0-190.464 85.504-190.464 190.464s85.504 190.464 190.464 190.464h190.464V242.688c0-104.96-85.504-190.464-190.464-190.464z" fill="#666666" /></svg>